<mxfile host="Electron" agent="Mozilla/5.0 (Windows NT 10.0; Win64; x64) AppleWebKit/537.36 (KHTML, like Gecko) draw.io/24.7.8 Chrome/128.0.6613.36 Electron/32.0.1 Safari/537.36" version="24.7.8">
  <diagram name="Page-1" id="RJW4eAELKWghDNtW6FSN">
    <mxGraphModel dx="1050" dy="621" grid="1" gridSize="10" guides="1" tooltips="1" connect="1" arrows="1" fold="1" page="1" pageScale="1" pageWidth="850" pageHeight="1100" math="0" shadow="0">
      <root>
        <mxCell id="0" />
        <mxCell id="1" parent="0" />
        <mxCell id="ADHDwLmN8T14qCe4Aaa0-1" value="" style="group" parent="1" vertex="1" connectable="0">
          <mxGeometry x="100" y="210" width="630" height="570" as="geometry" />
        </mxCell>
        <mxCell id="OJYePPfAEo2UwRQi5olk-1" value="" style="swimlane;startSize=0;" parent="ADHDwLmN8T14qCe4Aaa0-1" vertex="1">
          <mxGeometry x="100" width="530" height="570" as="geometry" />
        </mxCell>
        <mxCell id="OJYePPfAEo2UwRQi5olk-2" value="Login" style="ellipse;whiteSpace=wrap;html=1;" parent="OJYePPfAEo2UwRQi5olk-1" vertex="1">
          <mxGeometry x="185" y="130" width="140" height="60" as="geometry" />
        </mxCell>
        <mxCell id="OJYePPfAEo2UwRQi5olk-3" style="edgeStyle=orthogonalEdgeStyle;rounded=0;orthogonalLoop=1;jettySize=auto;html=1;exitX=0.5;exitY=1;exitDx=0;exitDy=0;" parent="OJYePPfAEo2UwRQi5olk-1" source="OJYePPfAEo2UwRQi5olk-2" target="OJYePPfAEo2UwRQi5olk-2" edge="1">
          <mxGeometry relative="1" as="geometry" />
        </mxCell>
        <mxCell id="OJYePPfAEo2UwRQi5olk-4" value="Validate" style="ellipse;whiteSpace=wrap;html=1;" parent="OJYePPfAEo2UwRQi5olk-1" vertex="1">
          <mxGeometry x="420" y="60" width="100" height="40" as="geometry" />
        </mxCell>
        <mxCell id="OJYePPfAEo2UwRQi5olk-5" value="LogIn Successfully" style="ellipse;whiteSpace=wrap;html=1;" parent="OJYePPfAEo2UwRQi5olk-1" vertex="1">
          <mxGeometry x="80" y="380" width="140" height="60" as="geometry" />
        </mxCell>
        <mxCell id="OJYePPfAEo2UwRQi5olk-6" value="DashBoard" style="ellipse;whiteSpace=wrap;html=1;" parent="OJYePPfAEo2UwRQi5olk-1" vertex="1">
          <mxGeometry x="185" y="240" width="140" height="60" as="geometry" />
        </mxCell>
        <mxCell id="OJYePPfAEo2UwRQi5olk-7" value="Error" style="ellipse;whiteSpace=wrap;html=1;" parent="OJYePPfAEo2UwRQi5olk-1" vertex="1">
          <mxGeometry x="310" y="380" width="140" height="60" as="geometry" />
        </mxCell>
        <mxCell id="OJYePPfAEo2UwRQi5olk-8" value="" style="endArrow=none;html=1;rounded=0;" parent="OJYePPfAEo2UwRQi5olk-1" edge="1">
          <mxGeometry width="50" height="50" relative="1" as="geometry">
            <mxPoint x="150" y="340" as="sourcePoint" />
            <mxPoint x="370" y="340" as="targetPoint" />
          </mxGeometry>
        </mxCell>
        <mxCell id="OJYePPfAEo2UwRQi5olk-9" value="" style="endArrow=classic;html=1;rounded=0;" parent="OJYePPfAEo2UwRQi5olk-1" edge="1">
          <mxGeometry width="50" height="50" relative="1" as="geometry">
            <mxPoint x="255" y="340" as="sourcePoint" />
            <mxPoint x="255" y="300" as="targetPoint" />
          </mxGeometry>
        </mxCell>
        <mxCell id="OJYePPfAEo2UwRQi5olk-10" value="" style="endArrow=none;html=1;rounded=0;exitX=0.429;exitY=0;exitDx=0;exitDy=0;exitPerimeter=0;" parent="OJYePPfAEo2UwRQi5olk-1" source="OJYePPfAEo2UwRQi5olk-7" edge="1">
          <mxGeometry width="50" height="50" relative="1" as="geometry">
            <mxPoint x="320" y="330" as="sourcePoint" />
            <mxPoint x="370" y="340" as="targetPoint" />
          </mxGeometry>
        </mxCell>
        <mxCell id="OJYePPfAEo2UwRQi5olk-11" value="Yes" style="text;html=1;align=center;verticalAlign=middle;whiteSpace=wrap;rounded=0;" parent="OJYePPfAEo2UwRQi5olk-1" vertex="1">
          <mxGeometry x="160" y="310" width="60" height="30" as="geometry" />
        </mxCell>
        <mxCell id="OJYePPfAEo2UwRQi5olk-12" value="No" style="text;html=1;align=center;verticalAlign=middle;whiteSpace=wrap;rounded=0;" parent="OJYePPfAEo2UwRQi5olk-1" vertex="1">
          <mxGeometry x="290" y="310" width="60" height="30" as="geometry" />
        </mxCell>
        <mxCell id="OJYePPfAEo2UwRQi5olk-13" value="&amp;lt;&amp;lt;include&amp;gt;&amp;gt;" style="endArrow=open;endSize=12;dashed=1;html=1;rounded=0;exitX=1.001;exitY=0.532;exitDx=0;exitDy=0;exitPerimeter=0;entryX=0.5;entryY=1;entryDx=0;entryDy=0;" parent="OJYePPfAEo2UwRQi5olk-1" source="OJYePPfAEo2UwRQi5olk-2" target="OJYePPfAEo2UwRQi5olk-4" edge="1">
          <mxGeometry width="160" relative="1" as="geometry">
            <mxPoint x="360" y="100" as="sourcePoint" />
            <mxPoint x="520" y="100" as="targetPoint" />
          </mxGeometry>
        </mxCell>
        <mxCell id="OJYePPfAEo2UwRQi5olk-14" value="&amp;lt;&amp;lt;include&amp;gt;&amp;gt;" style="endArrow=open;endSize=12;dashed=1;html=1;rounded=0;exitX=1;exitY=0.5;exitDx=0;exitDy=0;entryX=0;entryY=0.5;entryDx=0;entryDy=0;" parent="OJYePPfAEo2UwRQi5olk-1" source="OJYePPfAEo2UwRQi5olk-15" target="OJYePPfAEo2UwRQi5olk-4" edge="1">
          <mxGeometry width="160" relative="1" as="geometry">
            <mxPoint x="335" y="102" as="sourcePoint" />
            <mxPoint x="390" y="138" as="targetPoint" />
          </mxGeometry>
        </mxCell>
        <mxCell id="OJYePPfAEo2UwRQi5olk-15" value="Registration" style="ellipse;whiteSpace=wrap;html=1;" parent="OJYePPfAEo2UwRQi5olk-1" vertex="1">
          <mxGeometry x="185" y="30" width="140" height="60" as="geometry" />
        </mxCell>
        <mxCell id="OJYePPfAEo2UwRQi5olk-16" value="" style="endArrow=none;html=1;rounded=0;entryX=0;entryY=0.5;entryDx=0;entryDy=0;" parent="OJYePPfAEo2UwRQi5olk-1" target="OJYePPfAEo2UwRQi5olk-15" edge="1">
          <mxGeometry width="50" height="50" relative="1" as="geometry">
            <mxPoint x="-70" y="260" as="sourcePoint" />
            <mxPoint x="195" y="60" as="targetPoint" />
          </mxGeometry>
        </mxCell>
        <mxCell id="OJYePPfAEo2UwRQi5olk-17" value="Driver" style="shape=umlActor;verticalLabelPosition=bottom;verticalAlign=top;html=1;outlineConnect=0;" parent="ADHDwLmN8T14qCe4Aaa0-1" vertex="1">
          <mxGeometry y="240" width="30" height="60" as="geometry" />
        </mxCell>
        <mxCell id="OJYePPfAEo2UwRQi5olk-18" value="" style="endArrow=none;html=1;rounded=0;entryX=0;entryY=0.5;entryDx=0;entryDy=0;" parent="ADHDwLmN8T14qCe4Aaa0-1" target="OJYePPfAEo2UwRQi5olk-2" edge="1">
          <mxGeometry width="50" height="50" relative="1" as="geometry">
            <mxPoint x="30" y="260" as="sourcePoint" />
            <mxPoint x="80" y="210" as="targetPoint" />
          </mxGeometry>
        </mxCell>
        <mxCell id="OJYePPfAEo2UwRQi5olk-19" value="" style="endArrow=none;html=1;rounded=0;entryX=0;entryY=0.5;entryDx=0;entryDy=0;" parent="ADHDwLmN8T14qCe4Aaa0-1" target="OJYePPfAEo2UwRQi5olk-6" edge="1">
          <mxGeometry width="50" height="50" relative="1" as="geometry">
            <mxPoint x="30" y="260" as="sourcePoint" />
            <mxPoint x="295" y="150" as="targetPoint" />
          </mxGeometry>
        </mxCell>
        <mxCell id="OJYePPfAEo2UwRQi5olk-20" value="" style="endArrow=none;html=1;rounded=0;exitX=0.5;exitY=0;exitDx=0;exitDy=0;" parent="ADHDwLmN8T14qCe4Aaa0-1" source="OJYePPfAEo2UwRQi5olk-5" edge="1">
          <mxGeometry width="50" height="50" relative="1" as="geometry">
            <mxPoint x="250" y="390" as="sourcePoint" />
            <mxPoint x="250" y="380" as="targetPoint" />
            <Array as="points">
              <mxPoint x="250" y="340" />
            </Array>
          </mxGeometry>
        </mxCell>
      </root>
    </mxGraphModel>
  </diagram>
</mxfile>
